<svg width="20" height="21" viewBox="0 0 20 21" fill="none" xmlns="http://www.w3.org/2000/svg">
<path d="M16 16.6326C16.5304 16.6326 17.0391 16.8476 17.4142 17.2303C17.7893 17.613 18 18.1321 18 18.6734C18 19.2146 17.7893 19.7337 17.4142 20.1165C17.0391 20.4992 16.5304 20.7142 16 20.7142C14.89 20.7142 14 19.7958 14 18.6734C14 17.5407 14.89 16.6326 16 16.6326ZM0 0.30603H3.27L4.21 2.34685H19C19.2652 2.34685 19.5196 2.45435 19.7071 2.64572C19.8946 2.83708 20 3.09663 20 3.36726C20 3.54072 19.95 3.71419 19.88 3.87746L16.3 10.4795C15.96 11.1019 15.3 11.5305 14.55 11.5305H7.1L6.2 13.1938L6.17 13.3162C6.17 13.3839 6.19634 13.4488 6.24322 13.4966C6.29011 13.5445 6.3537 13.5713 6.42 13.5713H18V15.6122H6C4.89 15.6122 4 14.6938 4 13.5713C4 13.2142 4.09 12.8775 4.24 12.5917L5.6 10.0917L2 2.34685H0V0.30603ZM6 16.6326C6.53043 16.6326 7.03914 16.8476 7.41421 17.2303C7.78929 17.613 8 18.1321 8 18.6734C8 19.2146 7.78929 19.7337 7.41421 20.1165C7.03914 20.4992 6.53043 20.7142 6 20.7142C4.89 20.7142 4 19.7958 4 18.6734C4 17.5407 4.89 16.6326 6 16.6326ZM15 9.48971L17.78 4.38766H5.14L7.5 9.48971H15Z" fill="#4D6D80"/>
</svg>
