<svg width="24" height="25" viewBox="0 0 24 25" fill="none" xmlns="http://www.w3.org/2000/svg">
<path d="M20 12.5101C20 10.3451 19.1571 8.26872 17.6569 6.73781C16.1566 5.2069 14.1217 4.34685 12 4.34685C9.87827 4.34685 7.84344 5.2069 6.34315 6.73781C4.84285 8.26872 4 10.3451 4 12.5101C4 14.6751 4.84285 16.7515 6.34315 18.2824C7.84344 19.8133 9.87827 20.6734 12 20.6734C14.1217 20.6734 16.1566 19.8133 17.6569 18.2824C19.1571 16.7515 20 14.6751 20 12.5101ZM22 12.5101C22 15.2164 20.9464 17.8119 19.0711 19.7255C17.1957 21.6391 14.6522 22.7142 12 22.7142C10.6868 22.7142 9.38642 22.4503 8.17317 21.9375C6.95991 21.4247 5.85752 20.673 4.92893 19.7255C3.05357 17.8119 2 15.2164 2 12.5101C2 9.80382 3.05357 7.20837 4.92893 5.29474C6.8043 3.3811 9.34784 2.30603 12 2.30603C13.3132 2.30603 14.6136 2.56997 15.8268 3.08277C17.0401 3.59557 18.1425 4.3472 19.0711 5.29474C19.9997 6.24227 20.7362 7.36716 21.2388 8.60518C21.7413 9.8432 22 11.1701 22 12.5101ZM10 9.95909C10 10.7754 9.3 11.4897 8.5 11.4897C7.7 11.4897 7 10.7754 7 9.95909C7 9.14277 7.7 8.42848 8.5 8.42848C9.3 8.42848 10 9.14277 10 9.95909ZM17 9.95909C17 10.7754 16.3 11.4897 15.5 11.4897C14.7 11.4897 14 10.7754 14 9.95909C14 9.14277 14.7 8.42848 15.5 8.42848C16.3 8.42848 17 9.14277 17 9.95909ZM12 17.8468C10.25 17.8468 8.71 17.102 7.81 15.9999L9.23 14.5509C9.68 15.2856 10.75 15.806 12 15.806C13.25 15.806 14.32 15.2856 14.77 14.5509L16.19 15.9999C15.29 17.102 13.75 17.8468 12 17.8468Z" fill="#4D6D80"/>
</svg>
