<svg width="20" height="21" viewBox="0 0 20 21" fill="none" xmlns="http://www.w3.org/2000/svg">
<path d="M10 0.30603C8.68678 0.30603 7.38642 0.569967 6.17317 1.08277C4.95991 1.59557 3.85752 2.3472 2.92893 3.29474C1.05357 5.20837 0 7.80382 0 10.5101C0 13.2164 1.05357 15.8119 2.92893 17.7255C3.85752 18.673 4.95991 19.4247 6.17317 19.9375C7.38642 20.4503 8.68678 20.7142 10 20.7142C12.6522 20.7142 15.1957 19.6391 17.0711 17.7255C18.9464 15.8119 20 13.2164 20 10.5101C20 9.17009 19.7413 7.8432 19.2388 6.60518C18.7362 5.36716 17.9997 4.24227 17.0711 3.29474C16.1425 2.3472 15.0401 1.59557 13.8268 1.08277C12.6136 0.569967 11.3132 0.30603 10 0.30603ZM5.07 16.9183C5.5 15.9999 8.12 15.102 10 15.102C11.88 15.102 14.5 15.9999 14.93 16.9183C13.57 18.0203 11.86 18.6734 10 18.6734C8.14 18.6734 6.43 18.0203 5.07 16.9183ZM16.36 15.4387C14.93 13.6632 11.46 13.0611 10 13.0611C8.54 13.0611 5.07 13.6632 3.64 15.4387C2.62 14.0815 2 12.3673 2 10.5101C2 6.01011 5.59 2.34685 10 2.34685C14.41 2.34685 18 6.01011 18 10.5101C18 12.3673 17.38 14.0815 16.36 15.4387ZM10 4.38766C8.06 4.38766 6.5 5.9795 6.5 7.95909C6.5 9.93868 8.06 11.5305 10 11.5305C11.94 11.5305 13.5 9.93868 13.5 7.95909C13.5 5.9795 11.94 4.38766 10 4.38766ZM10 9.48971C9.60218 9.48971 9.22064 9.32844 8.93934 9.0414C8.65804 8.75435 8.5 8.36504 8.5 7.95909C8.5 7.55315 8.65804 7.16383 8.93934 6.87679C9.22064 6.58974 9.60218 6.42848 10 6.42848C10.3978 6.42848 10.7794 6.58974 11.0607 6.87679C11.342 7.16383 11.5 7.55315 11.5 7.95909C11.5 8.36504 11.342 8.75435 11.0607 9.0414C10.7794 9.32844 10.3978 9.48971 10 9.48971Z" fill="#4D6D80"/>
</svg>
