<svg width="24" height="25" viewBox="0 0 24 25" fill="none" xmlns="http://www.w3.org/2000/svg">
<path d="M7.35998 6.32644L10.8 2.81623C11.5 2.10195 12.5 2.10195 13.2 2.81623L16.64 6.32644L12 11.0713L7.35998 6.32644ZM18.06 7.77542L13.41 12.5101L18.06 17.2448L21.5 13.7346C22.1 13.0203 22.1 11.9999 21.5 11.2856L18.06 7.77542ZM5.93998 17.2448L10.59 12.5101L5.93998 7.77542L2.49998 11.2856C1.79998 11.9999 1.79998 13.0203 2.49998 13.7346L5.93998 17.2448ZM12 13.9489L7.35998 18.6938L10.8 22.204C11.5 22.9183 12.5 22.9183 13.2 22.204L16.64 18.6938L12 13.9489Z" fill="#4D6D80"/>
</svg>
