<svg width="20" height="21" viewBox="0 0 20 21" fill="none" xmlns="http://www.w3.org/2000/svg">
<path d="M16.5 5.16327C16.1022 5.16327 15.7206 5.00523 15.4393 4.72393C15.158 4.44263 15 4.06109 15 3.66327C15 3.26544 15.158 2.88391 15.4393 2.60261C15.7206 2.3213 16.1022 2.16327 16.5 2.16327C16.8978 2.16327 17.2794 2.3213 17.5607 2.60261C17.842 2.88391 18 3.26544 18 3.66327C18 4.06109 17.842 4.44263 17.5607 4.72393C17.2794 5.00523 16.8978 5.16327 16.5 5.16327ZM0.59 9.74327C0.23 10.1033 0 10.6033 0 11.1633C0 11.7133 0.219999 12.2133 0.59 12.5733L7.59 19.5733C7.95 19.9333 8.45 20.1633 9 20.1633C9.55 20.1633 10.05 19.9333 10.42 19.5733L19.41 10.5733C19.78 10.2133 20 9.71327 20 9.16327V2.16327C20 1.05327 19.11 0.163269 18 0.163269H11C10.45 0.163269 9.95 0.383269 9.59 0.743269L0.59 9.74327ZM9 18.1633L2 11.1633L10.5 2.66327L17.5 9.66327L9 18.1633Z" fill="#4D6D80"/>
</svg>
