<svg width="20" height="21" viewBox="0 0 20 21" fill="none" xmlns="http://www.w3.org/2000/svg">
<path d="M6 5.40819L4 0.306152L8 2.34697L10 0.306152L12 2.34697L16 0.306152L14 5.40819H6ZM14 20.7143C8 20.7143 6 20.7143 6 20.7143C0 20.7143 1 16.6327 1 16.6327C1 16.6327 2 9.48983 6 7.44901H14C18 9.48983 19 16.6327 19 16.6327C19 16.6327 20 20.7143 14 20.7143ZM5.5 11.0204C5.5 11.4264 5.65804 11.8157 5.93934 12.1027C6.22064 12.3898 6.60218 12.5511 7 12.5511C7.39782 12.5511 7.77936 12.3898 8.06066 12.1027C8.34196 11.8157 8.5 11.4264 8.5 11.0204C8.5 10.6145 8.34196 10.2252 8.06066 9.93813C7.77936 9.65109 7.39782 9.48983 7 9.48983C6.60218 9.48983 6.22064 9.65109 5.93934 9.93813C5.65804 10.2252 5.5 10.6145 5.5 11.0204ZM14.5 17.1429C14.5 16.7369 14.342 16.3476 14.0607 16.0606C13.7794 15.7735 13.3978 15.6123 13 15.6123C12.6022 15.6123 12.2206 15.7735 11.9393 16.0606C11.658 16.3476 11.5 16.7369 11.5 17.1429C11.5 17.5488 11.658 17.9381 11.9393 18.2252C12.2206 18.5122 12.6022 18.6735 13 18.6735C13.3978 18.6735 13.7794 18.5122 14.0607 18.2252C14.342 17.9381 14.5 17.5488 14.5 17.1429ZM14.5 10.8674L13.15 9.48983L5.5 17.2959L6.87 18.6735L14.5 10.8674Z" fill="#4D6D80"/>
</svg>
