<svg width="20" height="21" viewBox="0 0 20 21" fill="none" xmlns="http://www.w3.org/2000/svg">
<path d="M9.99996 6.4286C11.0608 6.4286 12.0782 6.85863 12.8284 7.62408C13.5785 8.38954 14 9.42772 14 10.5102C14 11.5928 13.5785 12.6309 12.8284 13.3964C12.0782 14.1618 11.0608 14.5919 9.99996 14.5919C8.9391 14.5919 7.92168 14.1618 7.17153 13.3964C6.42139 12.6309 5.99996 11.5928 5.99996 10.5102C5.99996 9.42772 6.42139 8.38954 7.17153 7.62408C7.92168 6.85863 8.9391 6.4286 9.99996 6.4286ZM9.99996 8.46942C9.46953 8.46942 8.96082 8.68443 8.58575 9.06716C8.21068 9.44989 7.99996 9.96898 7.99996 10.5102C7.99996 11.0515 8.21068 11.5706 8.58575 11.9533C8.96082 12.336 9.46953 12.5511 9.99996 12.5511C10.5304 12.5511 11.0391 12.336 11.4142 11.9533C11.7892 11.5706 12 11.0515 12 10.5102C12 9.96898 11.7892 9.44989 11.4142 9.06716C11.0391 8.68443 10.5304 8.46942 9.99996 8.46942ZM7.99996 20.7143C7.74996 20.7143 7.53996 20.5306 7.49996 20.2857L7.12996 17.5817C6.49996 17.3266 5.95996 16.9796 5.43996 16.5715L2.94996 17.6021C2.72996 17.6837 2.45996 17.6021 2.33996 17.3776L0.339961 13.847C0.209961 13.6225 0.269962 13.347 0.459962 13.1939L2.56996 11.5L2.49996 10.5102L2.56996 9.48983L0.459962 7.82656C0.269962 7.6735 0.209961 7.39799 0.339961 7.1735L2.33996 3.64289C2.45996 3.4184 2.72996 3.32656 2.94996 3.4184L5.43996 4.43881C5.95996 4.04085 6.49996 3.69391 7.12996 3.43881L7.49996 0.734724C7.53996 0.489826 7.74996 0.306152 7.99996 0.306152H12C12.25 0.306152 12.46 0.489826 12.5 0.734724L12.87 3.43881C13.5 3.69391 14.04 4.04085 14.56 4.43881L17.05 3.4184C17.27 3.32656 17.54 3.4184 17.66 3.64289L19.66 7.1735C19.79 7.39799 19.73 7.6735 19.54 7.82656L17.43 9.48983L17.5 10.5102L17.43 11.5306L19.54 13.1939C19.73 13.347 19.79 13.6225 19.66 13.847L17.66 17.3776C17.54 17.6021 17.27 17.6939 17.05 17.6021L14.56 16.5817C14.04 16.9796 13.5 17.3266 12.87 17.5817L12.5 20.2857C12.46 20.5306 12.25 20.7143 12 20.7143H7.99996ZM9.24996 2.34697L8.87996 5.01023C7.67996 5.26534 6.61996 5.9184 5.84996 6.82656L3.43996 5.76534L2.68996 7.09187L4.79996 8.6735C4.39996 9.86738 4.39996 11.1633 4.79996 12.347L2.67996 13.9388L3.42996 15.2653L5.85996 14.2041C6.62996 15.1021 7.67996 15.7551 8.86996 16L9.23996 18.6735H10.76L11.13 16.0102C12.32 15.7551 13.37 15.1021 14.14 14.2041L16.57 15.2653L17.32 13.9388L15.2 12.3572C15.6 11.1633 15.6 9.86738 15.2 8.6735L17.31 7.09187L16.56 5.76534L14.15 6.82656C13.38 5.9184 12.32 5.26534 11.12 5.02044L10.75 2.34697H9.24996Z" fill="#4D6D80"/>
</svg>
