<svg width="24" height="21" viewBox="0 0 24 21" fill="none" xmlns="http://www.w3.org/2000/svg">
<path d="M4 4.16327H6V16.1633H4V4.16327ZM7 4.16327H8V16.1633H7V4.16327ZM9 4.16327H12V16.1633H9V4.16327ZM13 4.16327H14V16.1633H13V4.16327ZM16 4.16327H18V16.1633H16V4.16327ZM19 4.16327H20V16.1633H19V4.16327ZM2 2.16327V6.16327H0V2.16327C0 1.63284 0.210714 1.12413 0.585786 0.749055C0.960859 0.373983 1.46957 0.163269 2 0.163269H6V2.16327H2ZM22 0.163269C22.5304 0.163269 23.0391 0.373983 23.4142 0.749055C23.7893 1.12413 24 1.63284 24 2.16327V6.16327H22V2.16327H18V0.163269H22ZM2 14.1633V18.1633H6V20.1633H2C1.46957 20.1633 0.960859 19.9526 0.585786 19.5775C0.210714 19.2024 0 18.6937 0 18.1633V14.1633H2ZM22 18.1633V14.1633H24V18.1633C24 18.6937 23.7893 19.2024 23.4142 19.5775C23.0391 19.9526 22.5304 20.1633 22 20.1633H18V18.1633H22Z" fill="black"/>
</svg>
