<svg width="20" height="21" viewBox="0 0 20 21" fill="none" xmlns="http://www.w3.org/2000/svg">
<path d="M10 18.1632C5.59 18.1632 2 14.5732 2 10.1632C2 5.75321 5.59 2.16321 10 2.16321C14.41 2.16321 18 5.75321 18 10.1632C18 14.5732 14.41 18.1632 10 18.1632ZM10 0.163208C8.68678 0.163208 7.38642 0.421866 6.17317 0.924413C4.95991 1.42696 3.85752 2.16355 2.92893 3.09214C1.05357 4.9675 0 7.51104 0 10.1632C0 12.8154 1.05357 15.3589 2.92893 17.2343C3.85752 18.1629 4.95991 18.8995 6.17317 19.402C7.38642 19.9046 8.68678 20.1632 10 20.1632C12.6522 20.1632 15.1957 19.1096 17.0711 17.2343C18.9464 15.3589 20 12.8154 20 10.1632C20 8.84999 19.7413 7.54963 19.2388 6.33637C18.7362 5.12312 17.9997 4.02073 17.0711 3.09214C16.1425 2.16355 15.0401 1.42696 13.8268 0.924413C12.6136 0.421866 11.3132 0.163208 10 0.163208ZM11 5.16321H9V9.16321H5V11.1632H9V15.1632H11V11.1632H15V9.16321H11V5.16321Z" fill="black"/>
</svg>
